# xmcd
#
# Track frame offsets:
#	150
#	22591
#	38709
#	61558
#	79288
#	96227
#	116749
#	135128
#
# Disc length: 2098 seconds
#
# Revision: 0
# Processed by: cddbd v1.4PL0 Copyright (c) Steve Scherf et al.
# Submitted via: audiograbber 1.82.00
#
DISCID=52083008
DTITLE=The Dudek, Finnegan, Krueger Band - DFK
DYEAR=1980
DGENRE=
TTITLE0=Angels Fall
TTITLE1=Just Like The Weather
TTITLE2=Drinkin' Alone
TTITLE3=I Know You're In There
TTITLE4=It's All About You
TTITLE5=Just Be Happy
TTITLE6=That's Wrong
TTITLE7=You Cut So Deep
EXTD=
EXTT0=
EXTT1=
EXTT2=
EXTT3=
EXTT4=
EXTT5=
EXTT6=
EXTT7=
PLAYORDER=
